<svg width="50" height="60" viewBox="0 0 50 60" fill="none" xmlns="http://www.w3.org/2000/svg">
<path d="M44.6429 3.75H5.35714C2.39955 3.75 0 6.26953 0 9.375V50.625C0 53.7305 2.39955 56.25 5.35714 56.25H44.6429C47.6004 56.25 50 53.7305 50 50.625V9.375C50 6.26953 47.6004 3.75 44.6429 3.75ZM30.9487 48.7148C30.0112 48.8906 29.6652 48.2812 29.6652 47.7773C29.6652 47.1445 29.6875 43.9102 29.6875 41.2969C29.6875 39.4688 29.1071 38.3086 28.4263 37.6992C32.5558 37.2188 36.9085 36.6211 36.9085 29.1328C36.9085 27 36.183 25.9336 35 24.5625C35.1897 24.0586 35.8259 21.9844 34.8103 19.2891C33.2589 18.7852 29.7098 21.3867 29.7098 21.3867C28.2366 20.9531 26.6406 20.7305 25.067 20.7305C23.4933 20.7305 21.8973 20.9531 20.4241 21.3867C20.4241 21.3867 16.875 18.7852 15.3237 19.2891C14.308 21.9727 14.933 24.0469 15.1339 24.5625C13.9509 25.9336 13.3929 27 13.3929 29.1328C13.3929 36.5859 17.5558 37.2188 21.6853 37.6992C21.1496 38.2031 20.6696 39.0703 20.5022 40.3125C19.442 40.8164 16.7299 41.6836 15.1116 38.6836C14.096 36.832 12.2656 36.6797 12.2656 36.6797C10.4576 36.6562 12.1429 37.875 12.1429 37.875C13.3482 38.4609 14.1964 40.7109 14.1964 40.7109C15.279 44.1914 20.4576 43.0195 20.4576 43.0195C20.4576 44.6484 20.4799 47.2969 20.4799 47.7773C20.4799 48.2812 20.1451 48.8906 19.1964 48.7148C11.8304 46.125 6.67411 38.7656 6.67411 30.1641C6.67411 19.4062 14.5089 11.2383 24.7545 11.2383C35 11.2383 43.3036 19.4062 43.3036 30.1641C43.3147 38.7656 38.3147 46.1367 30.9487 48.7148ZM20 41.5547C19.7879 41.6016 19.5871 41.5078 19.5647 41.3555C19.5424 41.1797 19.6875 41.0273 19.8996 40.9805C20.1116 40.957 20.3125 41.0508 20.3348 41.2031C20.3683 41.3555 20.2232 41.5078 20 41.5547ZM18.9397 41.4492C18.9397 41.6016 18.7723 41.7305 18.5491 41.7305C18.3036 41.7539 18.1362 41.625 18.1362 41.4492C18.1362 41.2969 18.3036 41.168 18.5268 41.168C18.7388 41.1445 18.9397 41.2734 18.9397 41.4492ZM17.4107 41.3203C17.3661 41.4727 17.1429 41.543 16.9531 41.4727C16.7411 41.4258 16.596 41.25 16.6406 41.0977C16.6853 40.9453 16.9085 40.875 17.0982 40.9219C17.3214 40.9922 17.4665 41.168 17.4107 41.3203ZM16.0379 40.6875C15.9375 40.8164 15.7254 40.793 15.558 40.6172C15.3906 40.4648 15.346 40.2422 15.4576 40.1367C15.558 40.0078 15.7701 40.0312 15.9375 40.207C16.0826 40.3594 16.1384 40.5938 16.0379 40.6875ZM15.0223 39.6211C14.9219 39.6914 14.7321 39.6211 14.6094 39.4453C14.4866 39.2695 14.4866 39.0703 14.6094 38.9883C14.7321 38.8828 14.9219 38.9648 15.0223 39.1406C15.1451 39.3164 15.1451 39.5273 15.0223 39.6211ZM14.2969 38.4844C14.1964 38.5898 14.029 38.5312 13.9062 38.4141C13.7835 38.2617 13.7612 38.0859 13.8616 38.0039C13.9621 37.8984 14.1295 37.957 14.2522 38.0742C14.375 38.2266 14.3973 38.4023 14.2969 38.4844ZM13.5491 37.6172C13.5045 37.7227 13.3594 37.7461 13.2366 37.6641C13.0915 37.5938 13.0246 37.4648 13.0692 37.3594C13.1138 37.2891 13.2366 37.2539 13.3817 37.3125C13.5268 37.3945 13.5938 37.5234 13.5491 37.6172Z" fill="black"/>
</svg>
