<svg width="815" height="738" viewBox="0 0 815 738" fill="none" xmlns="http://www.w3.org/2000/svg">
<path d="M242.035 232.48C239.637 331.212 359.844 432 509.889 432C659.935 432 898.884 237.354 785.398 232.48C566.726 223.088 491.791 123.934 513.717 53.6459C552.985 -72.2352 246.758 38.0756 242.035 232.48Z" fill="#3F3D56"/>
<path d="M446.308 155.474L444.501 154.189L445.651 152.171L445.158 151.821L444.009 153.84L442.203 152.555L441.889 153.105L443.695 154.39L442.545 156.408L443.039 156.759L444.187 154.74L445.994 156.024L446.308 155.474Z" fill="#F9A826"/>
<path d="M580.641 301.621L578.834 300.336L579.984 298.318L579.491 297.968L578.342 299.987L576.536 298.702L576.222 299.252L578.028 300.537L576.878 302.555L577.372 302.906L578.521 300.887L580.327 302.171L580.641 301.621Z" fill="#F9A826"/>
<path d="M363.233 283.846L361.427 282.562L362.577 280.543L362.083 280.194L360.935 282.212L359.128 280.927L358.814 281.477L360.621 282.762L359.471 284.78L359.964 285.131L361.113 283.113L362.919 284.396L363.233 283.846Z" fill="#F9A826"/>
<path d="M525.847 378.644L524.041 377.36L525.19 375.341L524.697 374.992L523.548 377.01L521.742 375.725L521.428 376.275L523.234 377.56L522.085 379.579L522.578 379.929L523.727 377.911L525.533 379.194L525.847 378.644Z" fill="#F9A826"/>
<path d="M374.722 342.108L372.916 340.823L374.066 338.805L373.572 338.455L372.424 340.473L370.617 339.189L370.303 339.739L372.11 341.023L370.96 343.042L371.453 343.392L372.602 341.374L374.408 342.658L374.722 342.108Z" fill="#F9A826"/>
<path d="M738.836 293.721L737.029 292.436L738.179 290.418L737.686 290.068L736.537 292.087L734.73 290.802L734.417 291.352L736.223 292.637L735.073 294.655L735.567 295.006L736.715 292.987L738.522 294.271L738.836 293.721Z" fill="#F9A826"/>
<path d="M337.604 174.236L335.797 172.951L336.947 170.933L336.454 170.583L335.305 172.602L333.499 171.317L333.185 171.867L334.991 173.152L333.842 175.17L334.335 175.521L335.484 173.502L337.29 174.786L337.604 174.236Z" fill="#F9A826"/>
<path d="M488.729 196.434L486.199 194.636L487.809 191.81L487.119 191.32L485.51 194.146L482.981 192.347L482.542 193.119L485.072 194.916L483.462 197.742L484.152 198.233L485.761 195.407L488.289 197.205L488.729 196.434Z" fill="white"/>
<path d="M397.7 233.782C399.165 233.782 400.352 232.455 400.352 230.819C400.352 229.183 399.165 227.857 397.7 227.857C396.236 227.857 395.049 229.183 395.049 230.819C395.049 232.455 396.236 233.782 397.7 233.782Z" fill="#F9A826"/>
<path d="M294.299 233.782C295.763 233.782 296.95 232.455 296.95 230.819C296.95 229.183 295.763 227.857 294.299 227.857C292.835 227.857 291.648 229.183 291.648 230.819C291.648 232.455 292.835 233.782 294.299 233.782Z" fill="#F9A826"/>
<path d="M474.588 125.159C476.053 125.159 477.24 123.832 477.24 122.196C477.24 120.56 476.053 119.234 474.588 119.234C473.124 119.234 471.937 120.56 471.937 122.196C471.937 123.832 473.124 125.159 474.588 125.159Z" fill="#F9A826"/>
<path d="M449.843 305.868C451.307 305.868 452.494 304.541 452.494 302.905C452.494 301.269 451.307 299.943 449.843 299.943C448.378 299.943 447.191 301.269 447.191 302.905C447.191 304.541 448.378 305.868 449.843 305.868Z" fill="#F9A826"/>
<path d="M448.075 242.669C449.051 242.669 449.843 241.785 449.843 240.694C449.843 239.603 449.051 238.719 448.075 238.719C447.099 238.719 446.308 239.603 446.308 240.694C446.308 241.785 447.099 242.669 448.075 242.669Z" fill="#F9A826"/>
<path d="M629.248 329.567C630.224 329.567 631.016 328.683 631.016 327.592C631.016 326.501 630.224 325.617 629.248 325.617C628.272 325.617 627.481 326.501 627.481 327.592C627.481 328.683 628.272 329.567 629.248 329.567Z" fill="#FF6584"/>
<path d="M358.814 221.932C359.79 221.932 360.582 221.048 360.582 219.957C360.582 218.866 359.79 217.982 358.814 217.982C357.838 217.982 357.047 218.866 357.047 219.957C357.047 221.048 357.838 221.932 358.814 221.932Z" fill="#FF6584"/>
<path d="M469.286 61.96C470.262 61.96 471.053 61.0758 471.053 59.9851C471.053 58.8943 470.262 58.0101 469.286 58.0101C468.31 58.0101 467.518 58.8943 467.518 59.9851C467.518 61.0758 468.31 61.96 469.286 61.96Z" fill="#FF6584"/>
<path d="M396.816 153.796C397.793 153.796 398.584 152.911 398.584 151.821C398.584 150.73 397.793 149.846 396.816 149.846C395.84 149.846 395.049 150.73 395.049 151.821C395.049 152.911 395.84 153.796 396.816 153.796Z" fill="#F9A826"/>
<path d="M418.911 87.6345C419.887 87.6345 420.678 86.7503 420.678 85.6596C420.678 84.5688 419.887 83.6846 418.911 83.6846C417.935 83.6846 417.143 84.5688 417.143 85.6596C417.143 86.7503 417.935 87.6345 418.911 87.6345Z" fill="white"/>
<path d="M683.158 266.368C684.622 266.368 685.809 265.042 685.809 263.406C685.809 261.77 684.622 260.444 683.158 260.444C681.694 260.444 680.507 261.77 680.507 263.406C680.507 265.042 681.694 266.368 683.158 266.368Z" fill="#F9A826"/>
<path d="M507.288 277.231C508.752 277.231 509.939 275.904 509.939 274.268C509.939 272.632 508.752 271.306 507.288 271.306C505.824 271.306 504.636 272.632 504.636 274.268C504.636 275.904 505.824 277.231 507.288 277.231Z" fill="#F9A826"/>
<path d="M462.216 354.254C467.096 354.254 471.053 349.833 471.053 344.379C471.053 338.926 467.096 334.505 462.216 334.505C457.335 334.505 453.378 338.926 453.378 344.379C453.378 349.833 457.335 354.254 462.216 354.254Z" fill="#F9A826"/>
<path d="M569.152 239.706C570.616 239.706 571.803 238.38 571.803 236.744C571.803 235.108 570.616 233.782 569.152 233.782C567.687 233.782 566.5 235.108 566.5 236.744C566.5 238.38 567.687 239.706 569.152 239.706Z" fill="white"/>
<path d="M485.062 262.713C517.303 262.713 543.439 237.205 543.439 205.739C543.439 174.272 517.303 148.764 485.062 148.764C452.821 148.764 426.684 174.272 426.684 205.739C426.684 237.205 452.821 262.713 485.062 262.713Z" fill="#FFB8B8"/>
<path d="M441.49 234.226C441.49 234.226 452.489 315.147 435.568 324.23C418.647 333.312 536.248 334.138 536.248 334.138C536.248 334.138 510.02 263.952 521.865 242.483L441.49 234.226Z" fill="#FFB8B8"/>
<path d="M622.121 334.547L612.341 378.013L591.66 469.972L591.041 475.008L583.904 533.311L579.157 572.043L575.974 598.06C556.619 607.768 542.592 614.47 542.592 614.47C542.592 614.47 541.385 608.566 539.44 601.012C525.857 604.987 500.724 611.58 479.424 612.897C487.18 621.335 490.745 629.261 485.91 635.11C471.319 652.744 411.081 615.803 390.012 602.027C389.521 605.325 389.335 608.66 389.456 611.991L373.332 599.888L374.928 572.043L377.619 524.928L381.001 465.843C379.935 463.313 379.041 460.717 378.326 458.072C373.388 440.933 367.394 406.711 362.798 378.013C359.099 354.917 356.32 335.4 355.733 331.247C355.653 330.705 355.613 330.426 355.613 330.426L444.867 291.934C451.21 306.291 480.829 310.607 480.829 310.607C505.368 308.956 524.603 296.327 524.603 296.327L622.121 334.547Z" fill="#D0CDE1"/>
<path d="M549.363 597.959C549.363 597.959 545.585 599.222 539.44 601.012C525.857 604.987 500.724 611.58 479.424 612.897C461.086 614.044 445.59 611.286 442.756 599.61C441.541 594.589 443.264 590.459 447.019 587.066C458.228 576.924 487.506 573.29 510.726 572.043C517.283 571.694 523.349 571.531 528.398 571.469C536.971 571.361 542.592 571.531 542.592 571.531L542.727 572.043L549.363 597.959Z" fill="#A0616A"/>
<path d="M436.497 151.846L425.582 147.581C425.582 147.581 448.404 123.058 480.158 125.191L471.227 115.595C471.227 115.595 493.057 107.065 512.903 129.456C523.336 141.226 535.406 155.061 542.931 170.646H554.62L549.741 181.13L566.817 191.614L549.291 189.731C550.335 195.472 550.495 201.333 549.766 207.121C549.014 212.91 545.987 218.188 541.324 221.84C541.324 221.84 527.787 194.494 527.787 190.229V200.891C527.787 200.891 516.872 191.295 516.872 184.898L510.918 192.361L507.942 180.633L471.227 192.361L477.181 182.766L454.358 185.964L463.289 174.236C463.289 174.236 437.49 188.096 436.497 199.825C435.505 211.553 427.953 222.666 427.953 222.666C427.953 222.666 407.721 167.839 436.497 151.846Z" fill="#2F2E41"/>
<path d="M685.574 534.373C679.628 540.664 664.894 550.139 647.032 560.398C640.388 564.21 633.314 568.138 626.098 572.043C608.879 581.363 590.851 590.599 575.974 598.06C556.619 607.768 542.592 614.47 542.592 614.47C542.592 614.47 541.385 608.566 539.44 601.012C536.836 590.901 532.915 577.83 528.826 572.043C528.683 571.841 528.54 571.655 528.398 571.469C527.207 569.943 526.008 569.052 524.825 569.052L583.904 533.311L609.435 517.862L591.041 475.008L567.972 421.254L581.896 378.013L595.892 334.548H622.121C622.121 334.548 630.806 353.049 641.912 378.85C643.571 382.708 645.286 386.729 647.032 390.882C669.88 445.117 698.363 520.853 685.574 534.373Z" fill="#D0CDE1"/>
<path d="M485.91 635.11C471.319 652.744 411.081 615.803 390.011 602.027C385.423 599.028 382.692 597.13 382.692 597.13L401.967 572.043L408.072 564.101C408.072 564.101 413.534 566.929 421.607 571.531C421.901 571.702 422.195 571.872 422.496 572.043C429.458 576.033 438.199 581.247 447.019 587.066C459.189 595.1 471.494 604.266 479.424 612.897C487.18 621.335 490.745 629.261 485.91 635.11Z" fill="#A0616A"/>
<path d="M421.607 571.531C419.453 571.523 417.302 571.694 415.177 572.043C396.926 575.103 391.544 591.226 390.011 602.027C389.521 605.325 389.335 608.66 389.456 611.991L373.332 599.889L367.458 595.48C353.319 590.669 340.721 582.123 329.797 572.043C320.321 563.143 311.82 553.305 304.433 542.686C297.075 532.22 290.516 521.24 284.809 509.835C283.216 506.653 282.36 503.167 282.301 499.626C282.242 496.084 282.982 492.574 284.467 489.342L304.433 445.915L333.615 382.445C333.83 380.934 334.065 379.457 334.322 378.013C340.109 345.627 355.613 331.247 355.613 331.247H367.458L375.381 378.013L385.224 436.114L378.326 458.072L362.385 508.781L377.619 524.928L421.607 571.531Z" fill="#D0CDE1"/>
<path d="M435.013 436.161L445.138 447.69C448.9 446.99 452.829 446.167 456.875 445.243L453.967 436.161L461.078 444.257C503.944 433.968 557.077 413.962 557.077 413.962C557.077 413.962 499.715 418.067 456.885 408.935C437.935 404.894 418.438 414.063 410.661 431.406C406.141 441.486 406.851 450.22 422.882 450.22C428.299 450.129 433.7 449.633 439.039 448.736L435.013 436.161Z" fill="#F9A826"/>
<path d="M665.847 625.658V630.361C665.85 631.652 665.605 632.931 665.124 634.134C664.911 634.67 664.654 635.188 664.354 635.684C663.408 637.234 662.066 638.517 660.458 639.408C658.851 640.299 657.034 640.767 655.185 640.766H300.686C298.838 640.767 297.021 640.299 295.413 639.408C293.806 638.517 292.463 637.234 291.517 635.684C291.218 635.188 290.96 634.67 290.747 634.134C290.267 632.931 290.022 631.652 290.025 630.361V625.658C290.024 624.291 290.3 622.938 290.835 621.675C291.371 620.413 292.156 619.266 293.146 618.299C294.137 617.333 295.312 616.567 296.606 616.044C297.899 615.521 299.286 615.252 300.686 615.252H321.12V613.06C321.12 613.003 321.131 612.946 321.154 612.894C321.176 612.841 321.209 612.793 321.25 612.753C321.291 612.713 321.34 612.681 321.394 612.659C321.448 612.637 321.506 612.626 321.565 612.626H332.226C332.285 612.626 332.343 612.637 332.397 612.659C332.45 612.681 332.5 612.713 332.541 612.753C332.582 612.793 332.615 612.841 332.637 612.894C332.66 612.946 332.671 613.003 332.671 613.06V615.252H339.331V613.06C339.331 613.003 339.343 612.946 339.365 612.894C339.387 612.841 339.42 612.793 339.461 612.753C339.503 612.713 339.552 612.681 339.606 612.659C339.66 612.637 339.717 612.626 339.776 612.626H350.437C350.496 612.626 350.554 612.637 350.608 612.659C350.662 612.681 350.711 612.713 350.752 612.753C350.793 612.793 350.826 612.841 350.848 612.894C350.871 612.946 350.882 613.003 350.882 613.06V615.252H357.55V613.06C357.55 613.003 357.562 612.946 357.584 612.894C357.606 612.841 357.639 612.793 357.68 612.753C357.722 612.713 357.771 612.681 357.825 612.659C357.879 612.637 357.937 612.626 357.995 612.626H368.657C368.715 612.626 368.773 612.637 368.827 612.659C368.881 612.681 368.93 612.713 368.971 612.753C369.012 612.793 369.045 612.841 369.068 612.894C369.09 612.946 369.101 613.003 369.101 613.06V615.252H375.762V613.06C375.762 613.003 375.773 612.946 375.795 612.894C375.818 612.841 375.85 612.793 375.892 612.753C375.933 612.713 375.982 612.681 376.036 612.659C376.09 612.637 376.148 612.626 376.206 612.626H386.868C386.926 612.626 386.984 612.637 387.038 612.659C387.092 612.681 387.141 612.713 387.182 612.753C387.224 612.793 387.256 612.841 387.279 612.894C387.301 612.946 387.312 613.003 387.312 613.06V615.252H393.973V613.06C393.973 613.003 393.984 612.946 394.006 612.894C394.029 612.841 394.062 612.793 394.103 612.753C394.144 612.713 394.193 612.681 394.247 612.659C394.301 612.637 394.359 612.626 394.417 612.626H405.079C405.137 612.626 405.195 612.637 405.249 612.659C405.303 612.681 405.352 612.713 405.394 612.753C405.435 612.793 405.468 612.841 405.49 612.894C405.512 612.946 405.524 613.003 405.524 613.06V615.252H412.192V613.06C412.192 613.003 412.203 612.946 412.226 612.894C412.248 612.841 412.281 612.793 412.322 612.753C412.363 612.713 412.412 612.681 412.466 612.659C412.52 612.637 412.578 612.626 412.637 612.626H423.298C423.357 612.626 423.414 612.637 423.468 612.659C423.522 612.681 423.571 612.713 423.613 612.753C423.654 612.793 423.687 612.841 423.709 612.894C423.731 612.946 423.743 613.003 423.743 613.06V615.252H430.403V613.06C430.403 613.003 430.415 612.946 430.437 612.894C430.459 612.841 430.492 612.793 430.533 612.753C430.574 612.713 430.624 612.681 430.677 612.659C430.731 612.637 430.789 612.626 430.848 612.626H514.362C514.42 612.626 514.478 612.637 514.532 612.659C514.586 612.681 514.635 612.713 514.677 612.753C514.718 612.793 514.751 612.841 514.773 612.894C514.795 612.946 514.807 613.003 514.807 613.06V615.252H521.475V613.06C521.475 613.003 521.486 612.946 521.509 612.894C521.531 612.841 521.564 612.793 521.605 612.753C521.646 612.713 521.695 612.681 521.749 612.659C521.803 612.637 521.861 612.626 521.92 612.626H532.581C532.699 612.627 532.811 612.673 532.894 612.754C532.977 612.835 533.025 612.945 533.026 613.06V615.252H539.686V613.06C539.686 613.003 539.698 612.946 539.72 612.894C539.742 612.841 539.775 612.793 539.816 612.753C539.858 612.713 539.907 612.681 539.961 612.659C540.015 612.637 540.072 612.626 540.131 612.626H550.792C550.851 612.626 550.909 612.637 550.963 612.659C551.017 612.681 551.066 612.712 551.107 612.753C551.148 612.793 551.181 612.841 551.203 612.894C551.226 612.946 551.237 613.003 551.237 613.06V615.252H557.898V613.06C557.897 613.003 557.909 612.946 557.931 612.894C557.953 612.841 557.986 612.793 558.028 612.753C558.069 612.713 558.118 612.681 558.172 612.659C558.226 612.637 558.284 612.626 558.342 612.626H569.004C569.062 612.626 569.12 612.637 569.174 612.659C569.228 612.681 569.277 612.713 569.318 612.753C569.36 612.793 569.392 612.841 569.415 612.894C569.437 612.946 569.448 613.003 569.448 613.06V615.252H576.117V613.06C576.117 613.003 576.128 612.946 576.15 612.894C576.173 612.841 576.205 612.793 576.247 612.753C576.288 612.713 576.337 612.681 576.391 612.659C576.445 612.637 576.503 612.626 576.561 612.626H587.223C587.34 612.627 587.451 612.674 587.533 612.755C587.615 612.836 587.66 612.946 587.659 613.06V615.252H594.328V613.06C594.328 613.003 594.339 612.946 594.362 612.894C594.384 612.841 594.417 612.793 594.458 612.753C594.499 612.713 594.548 612.681 594.602 612.659C594.656 612.637 594.714 612.626 594.772 612.626H605.434C605.492 612.626 605.55 612.637 605.604 612.659C605.658 612.681 605.707 612.713 605.749 612.753C605.79 612.793 605.823 612.841 605.845 612.894C605.867 612.946 605.879 613.003 605.879 613.06V615.252H612.539V613.06C612.539 613.003 612.55 612.946 612.573 612.894C612.595 612.841 612.628 612.793 612.669 612.753C612.71 612.713 612.759 612.681 612.813 612.659C612.867 612.637 612.925 612.626 612.984 612.626H623.645C623.704 612.626 623.761 612.637 623.815 612.659C623.869 612.681 623.918 612.713 623.96 612.753C624.001 612.793 624.034 612.841 624.056 612.894C624.078 612.946 624.09 613.003 624.09 613.06V615.252H655.185C656.586 615.252 657.972 615.521 659.266 616.044C660.559 616.567 661.735 617.333 662.725 618.299C663.715 619.266 664.5 620.413 665.036 621.675C665.572 622.938 665.847 624.291 665.847 625.658Z" fill="#3F3D56"/>
<path d="M768.93 634.134H187.029V635.684H768.93V634.134Z" fill="#3F3D56"/>
<path d="M637.303 427.6H505.17V424.942H445.256V427.6H312.579C310.208 427.6 307.935 428.519 306.259 430.155C304.583 431.791 303.641 434.009 303.641 436.323V612.905C303.641 615.219 304.583 617.438 306.259 619.074C307.935 620.709 310.208 621.628 312.579 621.628H637.303C639.673 621.628 641.947 620.709 643.623 619.074C645.299 617.438 646.241 615.219 646.241 612.905V436.323C646.241 435.177 646.01 434.043 645.56 432.985C645.111 431.926 644.453 430.965 643.623 430.155C642.793 429.345 641.808 428.702 640.723 428.264C639.639 427.825 638.477 427.6 637.303 427.6Z" fill="#3F3D56"/>
<path d="M475.201 508.619C486.162 508.619 495.047 499.947 495.047 489.249C495.047 478.551 486.162 469.879 475.201 469.879C464.24 469.879 455.354 478.551 455.354 489.249C455.354 499.947 464.24 508.619 475.201 508.619Z" stroke="#D0CDE1" stroke-width="2" stroke-miterlimit="10"/>
<path d="M468.85 515.592C479.811 515.592 488.697 506.92 488.697 496.222C488.697 485.525 479.811 476.852 468.85 476.852C457.889 476.852 449.003 485.525 449.003 496.222C449.003 506.92 457.889 515.592 468.85 515.592Z" fill="#D0CDE1"/>
<path d="M225.091 626.306H202.863V648H225.091V626.306Z" fill="#D0CDE1"/>
<path d="M211.599 609.261V635.604H238.59V609.261H211.599ZM237.415 634.457H212.766V610.408H237.415V634.457Z" fill="#3F3D56"/>
<path d="M739.514 626.306H717.286V648H739.514V626.306Z" fill="#D0CDE1"/>
<path d="M726.021 609.261V635.604H753.013V609.261H726.021ZM751.838 634.457H727.188V610.408H751.838V634.457Z" fill="#3F3D56"/>
<path d="M258.551 578.681C259.291 603.435 244.471 612.507 225.873 613.037C225.441 613.05 225.011 613.057 224.583 613.06C223.72 613.066 222.866 613.052 222.02 613.018C205.199 612.336 191.885 603.622 191.196 580.601C190.483 556.776 220.783 525.821 223.056 523.531L223.06 523.529C223.146 523.442 223.19 523.398 223.19 523.398C223.19 523.398 257.81 553.929 258.551 578.681Z" fill="#D0CDE1"/>
<path d="M224.534 609.286L236.348 592.139L224.558 611.131L224.582 613.06C223.72 613.066 222.866 613.052 222.02 613.018L222.606 588.216L222.59 588.024L222.612 587.987L222.668 585.644L209.729 567.31L222.652 583.89L222.698 584.385L223.141 565.646L211.966 546.638L223.173 562.354L223.056 523.531L223.056 523.402L223.06 523.529L223.802 554.127L233.986 541.698L223.835 556.763L224.057 573.524L233.429 557.165L224.092 575.988L224.215 585.309L237.845 562.521L224.257 588.56L224.534 609.286Z" fill="#3F3D56"/>
<path d="M772.973 578.681C773.714 603.435 758.894 612.507 740.295 613.037C739.863 613.05 739.433 613.057 739.005 613.06C738.143 613.066 737.289 613.052 736.443 613.018C719.622 612.336 706.308 603.622 705.619 580.601C704.906 556.776 735.205 525.821 737.479 523.531L737.483 523.529C737.569 523.442 737.613 523.398 737.613 523.398C737.613 523.398 772.233 553.929 772.973 578.681Z" fill="#D0CDE1"/>
<path d="M738.956 609.286L750.771 592.139L738.981 611.131L739.005 613.06C738.143 613.066 737.289 613.052 736.443 613.018L737.029 588.216L737.013 588.024L737.034 587.987L737.09 585.644L724.152 567.31L737.075 583.89L737.121 584.385L737.564 565.646L726.388 546.638L737.595 562.354L737.478 523.531L737.479 523.402L737.483 523.529L738.224 554.127L748.409 541.698L738.258 556.763L738.48 573.524L747.852 557.165L738.514 575.988L738.638 585.309L752.268 562.521L738.68 588.56L738.956 609.286Z" fill="#3F3D56"/>
</svg>
