<svg width="52" height="53" viewBox="0 0 52 53" fill="none" xmlns="http://www.w3.org/2000/svg">
<path d="M0.478271 0V53H51.75V0H0.478271ZM28.3802 41.3353C28.3802 46.4933 25.4504 48.8475 21.1815 48.8475C17.3247 48.8475 15.093 46.7891 13.9486 44.2929L17.874 41.844C18.6294 43.2281 19.3161 44.3993 20.9755 44.3993C22.5549 44.3993 23.562 43.7605 23.562 41.2643V24.335H28.3802V41.3353ZM39.779 48.8475C35.3041 48.8475 32.4087 46.6471 31.001 43.7605L34.9265 41.4181C35.9565 43.1571 37.307 44.4467 39.676 44.4467C41.6673 44.4467 42.9491 43.4174 42.9491 41.9859C42.9491 40.2824 41.6444 39.679 39.4356 38.6734L38.234 38.1411C34.7548 36.615 32.4544 34.6866 32.4544 30.6288C32.4544 26.8904 35.2126 24.0511 39.5043 24.0511C42.5715 24.0511 44.7688 25.1513 46.3482 28.0379L42.5944 30.5223C41.7703 28.9962 40.8777 28.3929 39.4929 28.3929C38.0852 28.3929 37.1925 29.3156 37.1925 30.5223C37.1925 32.0129 38.0852 32.6163 40.1567 33.5509L41.3583 34.0833C45.4555 35.8933 47.7559 37.7507 47.7559 41.915C47.7559 46.3868 44.3454 48.8475 39.779 48.8475Z" fill="#F9A826"/>
</svg>
