<svg width="51" height="50" viewBox="0 0 51 50" fill="none" xmlns="http://www.w3.org/2000/svg">
<path d="M49.0849 18.4298C48.2256 15.0501 46.5961 12.5017 43.1251 12.5017H38.6497V17.6861C38.6497 21.7111 35.1675 25.1017 31.1943 25.1017H19.2746C16.0157 25.1017 13.3148 27.8361 13.3148 31.0408V42.1751C13.3148 45.347 16.1273 47.2064 19.2746 48.1142C23.047 49.197 26.6742 49.3939 31.1943 48.1142C34.1965 47.2611 37.1541 45.5439 37.1541 42.1751V37.7236H25.2456V36.2361H43.1251C46.5961 36.2361 47.8796 33.8626 49.0849 30.308C50.3349 26.6439 50.2791 23.122 49.0849 18.4298ZM31.9421 40.6876C33.1809 40.6876 34.1854 41.683 34.1854 42.908C34.1854 44.1439 33.1809 45.1392 31.9421 45.1392C30.7144 45.1392 29.6988 44.1329 29.6988 42.908C29.7099 41.672 30.7144 40.6876 31.9421 40.6876ZM18.7278 23.6361H30.6474C33.9622 23.6361 36.6072 20.9564 36.6072 17.697V6.5517C36.6072 3.37983 33.884 1.00639 30.6474 0.470454C26.6519 -0.174859 22.3104 -0.142046 18.7278 0.481391C13.6831 1.35639 12.7679 3.18295 12.7679 6.56264V11.0142H24.6988V12.5017H8.2925C4.82152 12.5017 1.7858 14.547 0.837138 18.4298C-0.256613 22.8814 -0.301256 25.6595 0.837138 30.308C1.68535 33.7642 3.70544 36.2361 7.17643 36.2361H11.2724V30.8986C11.2724 27.0376 14.6764 23.6361 18.7278 23.6361ZM17.98 8.0392C16.7412 8.0392 15.7367 7.04389 15.7367 5.81889C15.7479 4.58295 16.7412 3.58764 17.98 3.58764C19.2077 3.58764 20.2233 4.59389 20.2233 5.81889C20.2233 7.04389 19.2188 8.0392 17.98 8.0392Z" fill="#F9A826"/>
</svg>
