<svg width="47" height="56" viewBox="0 0 47 56" fill="none" xmlns="http://www.w3.org/2000/svg">
<path d="M0 10.4773C0 4.69084 5.58435 0 12.473 0H33.8751C40.7638 0 46.3482 4.69084 46.3482 10.4773C46.3482 14.1413 44.1091 17.3661 40.7176 19.2387C44.1091 21.1115 46.3482 24.3362 46.3482 28.0002C46.3482 33.7867 40.7638 38.4776 33.8751 38.4776H33.6043C30.3749 38.4776 27.432 37.4466 25.2169 35.7551V45.4089C25.2169 51.2725 19.4866 56 12.5402 56C5.66876 56 0 51.3235 0 45.5226C0 41.8588 2.23887 38.6342 5.6301 36.7615C2.23887 34.8888 0 31.6641 0 28.0002C0 24.3362 2.23906 21.1115 5.63053 19.2387C2.23906 17.3661 0 14.1413 0 10.4773ZM21.1312 20.9548H12.473C7.84078 20.9548 4.08565 24.1092 4.08565 28.0002C4.08565 31.8763 7.81182 35.0212 12.4194 35.0455C12.4372 35.0454 12.4551 35.0454 12.473 35.0454H21.1312V20.9548ZM25.2169 28.0002C25.2169 31.8912 28.972 35.0456 33.6043 35.0456H33.8751C38.5074 35.0456 42.2625 31.8912 42.2625 28.0002C42.2625 24.1092 38.5074 20.9548 33.8751 20.9548H33.6043C28.972 20.9548 25.2169 24.1092 25.2169 28.0002ZM12.473 38.4776C12.4551 38.4776 12.4372 38.4775 12.4194 38.4775C7.81182 38.5016 4.08565 41.6466 4.08565 45.5226C4.08565 49.3994 7.89095 52.568 12.5402 52.568C17.2645 52.568 21.1312 49.3485 21.1312 45.4089V38.4776H12.473ZM12.473 3.43195C7.84078 3.43195 4.08565 6.58627 4.08565 10.4773C4.08565 14.3684 7.84078 17.5226 12.473 17.5226H21.1312V3.43195H12.473ZM25.2169 17.5226H33.8751C38.5074 17.5226 42.2625 14.3684 42.2625 10.4773C42.2625 6.58627 38.5074 3.43195 33.8751 3.43195H25.2169V17.5226Z" fill="#F9A826"/>
</svg>
