<svg width="50" height="60" viewBox="0 0 50 60" fill="none" xmlns="http://www.w3.org/2000/svg">
<g clip-path="url(#clip0_9:326)">
<path d="M25 23.7492C23.8227 23.7497 22.6719 24.1167 21.6932 24.8038C20.7145 25.4909 19.9519 26.4673 19.5016 27.6096C19.0514 28.7518 18.9338 30.0085 19.1638 31.2209C19.3937 32.4333 19.9609 33.5468 20.7935 34.4208C21.6262 35.2948 22.6869 35.8899 23.8417 36.1308C24.9964 36.3718 26.1932 36.2479 27.2809 35.7747C28.3686 35.3016 29.2982 34.5004 29.9522 33.4725C30.6063 32.4446 30.9554 31.2362 30.9554 30C30.9542 28.3422 30.3263 26.7526 29.2096 25.5806C28.093 24.4085 26.5789 23.7498 25 23.7492ZM38.9185 18.9445C38.6155 18.1381 38.1578 17.4056 37.574 16.7926C36.9902 16.1796 36.2926 15.6991 35.5246 15.3809C33.1808 14.4094 27.6004 14.6273 25 14.6273C22.3996 14.6273 16.8248 14.4012 14.4743 15.3809C13.7063 15.6991 13.0087 16.1796 12.4249 16.7926C11.8411 17.4056 11.3834 18.1381 11.0804 18.9445C10.1562 21.4055 10.3627 27.2707 10.3627 29.9988C10.3627 32.727 10.1562 38.5852 11.0848 41.0543C11.3879 41.8607 11.8455 42.5932 12.4294 43.2062C13.0132 43.8192 13.7108 44.2998 14.4788 44.618C16.8225 45.5895 22.4029 45.3715 25.0045 45.3715C27.606 45.3715 33.1786 45.5977 35.529 44.618C36.2971 44.2998 36.9946 43.8192 37.5785 43.2062C38.1623 42.5932 38.6199 41.8607 38.923 41.0543C39.8549 38.5934 39.6406 32.7281 39.6406 30C39.6406 27.2719 39.8549 21.4148 38.923 18.9457L38.9185 18.9445ZM25 39.6094C23.1899 39.6094 21.4205 39.0458 19.9155 37.9899C18.4105 36.934 17.2375 35.4332 16.5449 33.6773C15.8522 31.9215 15.6709 29.9893 16.0241 28.1253C16.3772 26.2613 17.2488 24.549 18.5287 23.2051C19.8086 21.8612 21.4393 20.946 23.2146 20.5753C24.9898 20.2045 26.83 20.3948 28.5022 21.1221C30.1745 21.8494 31.6038 23.0811 32.6094 24.6613C33.615 26.2416 34.1518 28.0994 34.1518 30C34.1533 31.2624 33.9175 32.5126 33.4581 33.6792C32.9987 34.8457 32.3247 35.9057 31.4746 36.7983C30.6245 37.6909 29.615 38.3987 28.504 38.881C27.393 39.3634 26.2022 39.6109 25 39.6094ZM34.529 22.2305C34.1065 22.2307 33.6934 22.0993 33.3419 21.853C32.9905 21.6067 32.7165 21.2565 32.5547 20.8467C32.3928 20.4368 32.3504 19.9858 32.4327 19.5506C32.5149 19.1155 32.7183 18.7157 33.017 18.4019C33.3157 18.0881 33.6963 17.8744 34.1107 17.7877C34.5252 17.7011 34.9547 17.7454 35.3451 17.9152C35.7355 18.0849 36.0692 18.3724 36.304 18.7413C36.5387 19.1101 36.6641 19.5438 36.6641 19.9875C36.6652 20.2821 36.611 20.5741 36.5045 20.8467C36.3979 21.1192 36.2412 21.367 36.0433 21.5759C35.8453 21.7847 35.6101 21.9504 35.351 22.0635C35.0919 22.1767 34.8141 22.235 34.5335 22.2352L34.529 22.2305ZM44.6429 3.75H5.35714C3.93634 3.75 2.57373 4.34263 1.56907 5.39752C0.564412 6.45242 0 7.88316 0 9.375L0 50.625C0 52.1168 0.564412 53.5476 1.56907 54.6025C2.57373 55.6574 3.93634 56.25 5.35714 56.25H44.6429C46.0637 56.25 47.4263 55.6574 48.4309 54.6025C49.4356 53.5476 50 52.1168 50 50.625V9.375C50 7.88316 49.4356 6.45242 48.4309 5.39752C47.4263 4.34263 46.0637 3.75 44.6429 3.75ZM42.7321 37.7344C42.5882 40.7379 41.9353 43.3992 39.8471 45.5859C37.7589 47.7727 35.2266 48.4723 32.3694 48.6152C29.4219 48.7898 20.5848 48.7898 17.6373 48.6152C14.7768 48.4641 12.2511 47.7773 10.1596 45.5859C8.06808 43.3945 7.41071 40.732 7.27455 37.7344C7.10826 34.6383 7.10826 25.3582 7.27455 22.2656C7.41853 19.2621 8.06362 16.6008 10.1596 14.4141C12.2556 12.2273 14.7879 11.5359 17.6373 11.393C20.5848 11.2184 29.4219 11.2184 32.3694 11.393C35.2299 11.5441 37.7634 12.2309 39.8471 14.4223C41.9308 16.6137 42.596 19.2762 42.7321 22.2797C42.8984 25.3641 42.8984 34.6359 42.7321 37.7344Z" fill="black"/>
</g>
<defs>
<clipPath id="clip0_9:326">
<rect width="50" height="60" fill="white"/>
</clipPath>
</defs>
</svg>
