<svg width="50" height="60" viewBox="0 0 50 60" fill="none" xmlns="http://www.w3.org/2000/svg">
<path d="M46.4286 3.75H3.56027C1.59598 3.75 0 5.44922 0 7.53516V52.4648C0 54.5508 1.59598 56.25 3.56027 56.25H46.4286C48.3929 56.25 50 54.5508 50 52.4648V7.53516C50 5.44922 48.3929 3.75 46.4286 3.75ZM15.1116 48.75H7.70089V23.6953H15.1228V48.75H15.1116ZM11.4062 20.2734C9.02902 20.2734 7.10938 18.2461 7.10938 15.7617C7.10938 13.2773 9.02902 11.25 11.4062 11.25C13.7723 11.25 15.7031 13.2773 15.7031 15.7617C15.7031 18.2578 13.7835 20.2734 11.4062 20.2734V20.2734ZM42.8906 48.75H35.4799V36.5625C35.4799 33.6563 35.4241 29.918 31.6295 29.918C27.7679 29.918 27.1763 33.082 27.1763 36.3516V48.75H19.7656V23.6953H26.875V27.1172H26.9754C27.9687 25.1484 30.3906 23.0742 33.9955 23.0742C41.4955 23.0742 42.8906 28.2656 42.8906 35.0156V48.75V48.75Z" fill="white"/>
</svg>
