<svg width="838" height="452" viewBox="0 0 838 452" fill="none" xmlns="http://www.w3.org/2000/svg">
<g clip-path="url(#clip0_9:236)">
<path d="M522.708 441.731C517.066 441.728 511.656 439.483 507.668 435.492C503.68 431.502 501.439 426.09 501.439 420.448C501.439 414.806 503.68 409.395 507.668 405.404C511.656 401.413 517.066 399.169 522.708 399.165H838.843C837.253 396.246 834.906 393.809 832.049 392.111C829.191 390.412 825.93 389.515 822.606 389.512H194.213C186.015 389.521 178.156 392.785 172.362 398.586C166.569 404.386 163.315 412.25 163.316 420.448C163.32 428.645 166.575 436.505 172.368 442.305C178.16 448.105 186.017 451.37 194.213 451.384H822.605C825.929 451.382 829.191 450.484 832.049 448.786C834.906 447.087 837.253 444.65 838.843 441.731L522.708 441.731Z" fill="#CCCCCC"/>
<path d="M839.263 410.892H538.692C538.232 410.891 537.791 410.708 537.466 410.382C537.141 410.056 536.959 409.615 536.959 409.155C536.959 408.695 537.141 408.254 537.466 407.928C537.791 407.602 538.232 407.419 538.692 407.417H839.263C839.723 407.419 840.164 407.602 840.488 407.928C840.813 408.254 840.996 408.695 840.996 409.155C840.996 409.615 840.813 410.056 840.488 410.382C840.164 410.708 839.723 410.891 839.263 410.892Z" fill="#CCCCCC"/>
<path d="M839.263 422.186H538.692C538.231 422.186 537.789 422.003 537.463 421.677C537.138 421.351 536.955 420.909 536.955 420.448C536.955 419.988 537.138 419.546 537.463 419.22C537.789 418.894 538.231 418.711 538.692 418.711H839.263C839.723 418.711 840.165 418.894 840.491 419.22C840.817 419.546 841 419.988 841 420.448C841 420.909 840.817 421.351 840.491 421.677C840.165 422.003 839.723 422.186 839.263 422.186Z" fill="#CCCCCC"/>
<path d="M839.263 433.479H538.692C538.232 433.478 537.791 433.294 537.466 432.968C537.141 432.643 536.959 432.201 536.959 431.741C536.959 431.281 537.141 430.84 537.466 430.514C537.791 430.189 538.232 430.005 538.692 430.004H839.263C839.723 430.005 840.164 430.189 840.488 430.514C840.813 430.84 840.996 431.281 840.996 431.741C840.996 432.201 840.813 432.643 840.488 432.968C840.164 433.294 839.723 433.478 839.263 433.479Z" fill="#CCCCCC"/>
<path d="M441.05 381.791C435.408 381.787 429.998 379.543 426.01 375.552C422.022 371.561 419.781 366.15 419.781 360.508C419.781 354.866 422.022 349.454 426.01 345.464C429.998 341.473 435.408 339.229 441.05 339.225H757.185C755.595 336.306 753.248 333.869 750.391 332.17C747.533 330.472 744.272 329.574 740.948 329.572H112.556C104.357 329.581 96.4979 332.845 90.7043 338.645C84.9107 344.446 81.6569 352.309 81.6577 360.508C81.6619 368.705 84.9174 376.565 90.7099 382.365C96.5024 388.164 104.359 391.429 112.556 391.444H740.948C744.272 391.441 747.533 390.544 750.391 388.845C753.248 387.147 755.595 384.71 757.185 381.791L441.05 381.791Z" fill="#F9A826"/>
<path d="M757.605 350.952H457.034C456.574 350.951 456.133 350.768 455.808 350.442C455.483 350.116 455.301 349.675 455.301 349.215C455.301 348.755 455.483 348.314 455.808 347.988C456.133 347.662 456.574 347.479 457.034 347.478H757.605C758.065 347.478 758.507 347.661 758.833 347.986C759.159 348.312 759.342 348.754 759.342 349.215C759.342 349.676 759.159 350.118 758.833 350.443C758.507 350.769 758.065 350.952 757.605 350.952Z" fill="#CCCCCC"/>
<path d="M757.605 362.245H457.034C456.573 362.245 456.131 362.062 455.806 361.736C455.48 361.411 455.297 360.969 455.297 360.508C455.297 360.047 455.48 359.605 455.806 359.279C456.131 358.954 456.573 358.771 457.034 358.771H757.605C758.065 358.771 758.507 358.954 758.833 359.279C759.159 359.605 759.342 360.047 759.342 360.508C759.342 360.969 759.159 361.411 758.833 361.736C758.507 362.062 758.065 362.245 757.605 362.245Z" fill="#CCCCCC"/>
<path d="M757.605 373.538H457.034C456.574 373.537 456.133 373.354 455.808 373.028C455.483 372.702 455.301 372.261 455.301 371.801C455.301 371.341 455.483 370.9 455.808 370.574C456.133 370.248 456.574 370.065 457.034 370.063H757.605C757.833 370.063 758.06 370.107 758.271 370.195C758.482 370.282 758.674 370.409 758.836 370.571C758.998 370.732 759.126 370.924 759.214 371.135C759.301 371.346 759.346 371.572 759.346 371.801C759.346 372.029 759.301 372.256 759.214 372.467C759.126 372.678 758.998 372.87 758.836 373.031C758.674 373.192 758.482 373.32 758.271 373.407C758.06 373.494 757.833 373.539 757.605 373.538Z" fill="#CCCCCC"/>
<path d="M359.392 319.851C353.75 319.847 348.34 317.603 344.352 313.612C340.364 309.621 338.124 304.21 338.124 298.567C338.124 292.925 340.364 287.514 344.352 283.523C348.34 279.532 353.75 277.288 359.392 277.284H675.527C673.937 274.365 671.59 271.929 668.733 270.23C665.876 268.532 662.614 267.634 659.29 267.631H30.8975C22.6991 267.641 14.8397 270.904 9.0462 276.705C3.25269 282.506 -0.00102004 290.369 2.39877e-07 298.567C0.00414805 306.764 3.25952 314.625 9.05191 320.424C14.8443 326.224 22.7007 329.489 30.8975 329.503H659.29C662.614 329.501 665.876 328.603 668.733 326.905C671.59 325.206 673.937 322.769 675.527 319.851L359.392 319.851Z" fill="#CCCCCC"/>
<path d="M675.947 289.012H375.376C374.916 289.011 374.475 288.827 374.15 288.502C373.825 288.176 373.643 287.735 373.643 287.275C373.643 286.814 373.825 286.373 374.15 286.047C374.475 285.722 374.916 285.538 375.376 285.537H675.947C676.408 285.537 676.849 285.72 677.175 286.046C677.501 286.372 677.684 286.814 677.684 287.275C677.684 287.735 677.501 288.177 677.175 288.503C676.849 288.829 676.408 289.012 675.947 289.012Z" fill="#CCCCCC"/>
<path d="M675.947 300.305H375.376C375.148 300.305 374.922 300.26 374.711 300.173C374.5 300.085 374.309 299.957 374.148 299.796C373.986 299.635 373.858 299.443 373.771 299.232C373.684 299.022 373.639 298.796 373.639 298.568C373.639 298.339 373.684 298.113 373.771 297.903C373.858 297.692 373.986 297.5 374.148 297.339C374.309 297.178 374.5 297.05 374.711 296.962C374.922 296.875 375.148 296.83 375.376 296.83H675.947C676.175 296.83 676.401 296.875 676.612 296.962C676.822 297.05 677.014 297.178 677.175 297.339C677.337 297.5 677.465 297.692 677.552 297.903C677.639 298.113 677.684 298.339 677.684 298.568C677.684 298.796 677.639 299.022 677.552 299.232C677.465 299.443 677.337 299.635 677.175 299.796C677.014 299.957 676.822 300.085 676.612 300.173C676.401 300.26 676.175 300.305 675.947 300.305Z" fill="#CCCCCC"/>
<path d="M675.947 311.598H375.376C374.915 311.598 374.473 311.415 374.148 311.089C373.822 310.763 373.639 310.321 373.639 309.86C373.639 309.4 373.822 308.958 374.148 308.632C374.473 308.306 374.915 308.123 375.376 308.123H675.947C676.175 308.123 676.401 308.168 676.612 308.255C676.822 308.343 677.014 308.471 677.175 308.632C677.337 308.793 677.465 308.985 677.552 309.196C677.639 309.406 677.684 309.632 677.684 309.86C677.684 310.089 677.639 310.315 677.552 310.525C677.465 310.736 677.337 310.928 677.175 311.089C677.014 311.25 676.822 311.378 676.612 311.466C676.401 311.553 676.175 311.598 675.947 311.598Z" fill="#CCCCCC"/>
</g>
<defs>
<clipPath id="clip0_9:236">
<rect width="911.602" height="451.384" fill="white"/>
</clipPath>
</defs>
</svg>
