<svg width="401" height="657" viewBox="0 0 401 657" fill="none" xmlns="http://www.w3.org/2000/svg">
<g clip-path="url(#clip0_43:44)">
<path d="M-415.969 304.978C-411.978 260.057 -391.88 216.647 -363.21 180.745C-362.011 179.244 -360.799 177.756 -359.571 176.282C-356.81 172.966 -353.978 169.713 -351.074 166.522C-347.521 162.591 -343.865 158.75 -340.105 155C-337.044 151.913 -333.912 148.893 -330.709 145.938C-328.237 143.634 -325.736 141.375 -323.207 139.16C-292.782 112.372 -257.83 90.2661 -221.819 70.9335C-151.541 33.2173 -74.5105 4.64605 5.6131 0.485436C85.7259 -3.6647 169.36 18.6918 228.112 71.9345C307.294 143.686 329.393 263.362 297.245 363.956C275.863 430.879 232.221 491.421 172.827 530.962C113.946 570.159 39.6658 587.803 -30.6336 576.27C-86.7532 609.502 -160.22 610.138 -221.231 585.54C-253.785 572.412 -283.001 552.891 -308.631 529.304C-320.369 518.48 -331.352 506.904 -341.507 494.654C-342.545 493.413 -343.572 492.162 -344.589 490.9C-348.848 485.655 -352.968 480.302 -356.949 474.842C-362.664 467.011 -368.09 459.006 -373.227 450.827C-374.639 448.575 -376.041 446.312 -377.411 444.028C-378.331 442.496 -379.263 440.952 -380.172 439.399C-380.193 439.367 -380.207 439.331 -380.215 439.294C-394.459 414.884 -406.102 388.836 -412.17 361.61C-413.24 356.792 -414.139 351.954 -414.835 347.074V347.063C-415.445 342.924 -415.905 338.763 -416.216 334.582C-416.947 324.723 -416.865 314.824 -415.969 304.978V304.978Z" fill="#3F3D56"/>
<path d="M157.449 302.694C104.846 302.694 62.2036 344.244 62.2036 395.499C62.2036 446.753 104.846 488.303 157.449 488.303C210.051 488.303 252.694 446.753 252.694 395.499C252.694 344.244 210.051 302.694 157.449 302.694Z" fill="#F2F2F2"/>
<path d="M72.9053 401.755C72.9044 390.663 75.146 379.68 79.5019 369.432C83.8579 359.184 90.2429 349.873 98.2924 342.029C106.342 334.186 115.898 327.965 126.416 323.72C136.933 319.476 148.205 317.292 159.589 317.293C169.735 317.298 179.803 319.028 189.34 322.402C204.251 327.696 217.387 336.873 227.316 348.937C237.245 361 243.588 375.486 245.653 390.818C247.718 406.15 245.426 421.741 239.028 435.892C232.63 450.043 222.37 462.213 209.365 471.076C196.36 479.939 181.109 485.156 165.272 486.158C149.435 487.161 133.62 483.911 119.547 476.762C105.475 469.614 93.6846 458.84 85.4606 445.615C77.2366 432.389 72.8939 417.219 72.9053 401.755V401.755Z" fill="white"/>
<path d="M174.571 403.841C159.795 403.841 147.817 415.512 147.817 429.91C147.817 444.307 159.795 455.978 174.571 455.978C189.347 455.978 201.326 444.307 201.326 429.91C201.326 415.512 189.347 403.841 174.571 403.841Z" fill="#E4E4E4"/>
<path d="M76.287 425.186C82.0854 422.468 88.695 421.877 94.9042 423.522C101.113 425.166 106.507 428.936 110.095 434.14C113.683 439.344 115.227 445.634 114.442 451.857C113.658 458.08 110.598 463.819 105.824 468.022C91.6356 457.093 81.3085 442.116 76.287 425.186Z" fill="#F2F2F2"/>
<path d="M130.694 364.216C125.375 364.216 121.063 368.418 121.063 373.601C121.063 378.784 125.375 382.986 130.694 382.986C136.014 382.986 140.326 378.784 140.326 373.601C140.326 368.418 136.014 364.216 130.694 364.216Z" fill="#E4E4E4"/>
<path d="M170.291 320.421C170.291 319.597 170.403 318.777 170.622 317.981C177.013 318.76 183.292 320.244 189.34 322.403C188.837 324.667 187.494 326.67 185.567 328.027C183.64 329.384 181.266 329.999 178.901 329.753C176.537 329.507 174.35 328.418 172.76 326.695C171.171 324.973 170.291 322.738 170.291 320.421Z" fill="#F2F2F2"/>
<path d="M227.01 405.927C227.01 401.165 228.867 396.582 232.205 393.105C235.544 389.628 240.113 387.517 244.988 387.199C247.195 399.594 246.552 412.312 243.105 424.435C238.608 423.705 234.523 421.444 231.576 418.055C228.629 414.666 227.011 410.369 227.01 405.927Z" fill="#F2F2F2"/>
<path d="M159.888 87.5435C158.61 87.5435 157.574 88.5533 157.574 89.799C157.574 91.0447 158.61 92.0544 159.888 92.0544C161.167 92.0544 162.203 91.0447 162.203 89.799C162.203 88.5533 161.167 87.5435 159.888 87.5435Z" fill="#F0F0F0"/>
<path d="M74.1099 287.674C71.9216 287.674 70.1477 289.402 70.1477 291.535C70.1477 293.667 71.9216 295.395 74.1099 295.395C76.2981 295.395 78.072 293.667 78.072 291.535C78.072 289.402 76.2981 287.674 74.1099 287.674Z" fill="#F9A826"/>
<path d="M217.513 204.483C207.179 204.483 198.803 212.645 198.803 222.713C198.803 232.782 207.179 240.944 217.513 240.944C227.846 240.944 236.222 232.782 236.222 222.713C236.222 212.645 227.846 204.483 217.513 204.483Z" fill="#F9A826"/>
<path d="M114.941 200.16C113.663 200.16 112.627 201.17 112.627 202.416C112.627 203.661 113.663 204.671 114.941 204.671C116.22 204.671 117.256 203.661 117.256 202.416C117.256 201.17 116.22 200.16 114.941 200.16Z" fill="#F0F0F0"/>
<path d="M17.556 71.9022C16.2776 71.9022 15.2412 72.912 15.2412 74.1577C15.2412 75.4033 16.2776 76.4131 17.556 76.4131C18.8344 76.4131 19.8707 75.4033 19.8707 74.1577C19.8707 72.912 18.8344 71.9022 17.556 71.9022Z" fill="#F0F0F0"/>
<path d="M51.8014 531.754C50.5229 531.754 49.4865 532.764 49.4865 534.009C49.4865 535.255 50.5229 536.265 51.8014 536.265C53.0799 536.265 54.1162 535.255 54.1162 534.009C54.1162 532.764 53.0799 531.754 51.8014 531.754Z" fill="#F0F0F0"/>
<path d="M83.6077 153.606C82.3293 153.606 81.2929 154.616 81.2929 155.862C81.2929 157.107 82.3293 158.117 83.6077 158.117C84.8862 158.117 85.9226 157.107 85.9226 155.862C85.9226 154.616 84.8862 153.606 83.6077 153.606Z" fill="#F0F0F0"/>
<path d="M-368.078 101.287C-354.26 101.287 -339.115 101.796 -322.642 102.814C-237.442 108.085 -127.082 126.414 -11.8909 154.422C103.3 182.429 209.559 216.771 287.313 251.12C325.189 267.853 354.258 283.692 373.713 298.197C394.311 313.554 403.321 326.94 400.493 337.981C394.984 359.492 346.202 364.198 306.25 364.358L306.236 361.23C361.102 361.01 393.47 352.484 397.378 337.224C402.356 317.787 361.755 287.442 285.987 253.969C208.405 219.696 102.34 185.42 -12.6685 157.456C-127.677 129.493 -237.833 111.196 -322.846 105.936C-405.868 100.797 -456.342 108.999 -461.32 128.436C-465.453 144.574 -438.206 168.348 -384.6 195.379L-386.076 198.157C-425.027 178.516 -470.24 150.345 -464.435 127.679C-461.607 116.637 -447.2 108.946 -421.613 104.819C-407.027 102.466 -389.111 101.287 -368.078 101.287Z" fill="#F9A826"/>
<path d="M144.091 63.3055C182.188 63.3045 217.605 64.5784 249.312 67.1486C290.756 70.509 323.598 75.9111 346.923 83.2033C371.619 90.9251 384.721 100.583 385.864 111.908C388.094 133.971 343.77 154.374 306.195 167.605L305.104 164.662C356.704 146.493 384.251 127.867 382.67 112.214C380.656 92.2774 331.952 76.9885 249.046 70.2667C164.155 63.3839 52.4379 65.8228 -65.5268 77.1382C-183.492 88.4506 -293.554 107.28 -375.438 130.157C-455.408 152.499 -500.118 176.747 -498.105 196.684C-496.432 213.236 -462.572 226.707 -402.761 234.618L-403.193 237.717C-446.652 231.97 -498.951 220.239 -501.299 196.99C-502.444 185.664 -491.525 173.703 -468.849 161.439C-447.43 149.855 -416.3 138.318 -376.324 127.15C-294.258 104.222 -183.993 85.356 -65.8414 74.0242C8.27768 66.9164 79.9639 63.3055 144.091 63.3055Z" fill="#F9A826"/>
<path d="M46.2855 620.539C35.9523 620.539 27.5757 628.701 27.5757 638.77C27.5757 648.838 35.9523 657 46.2855 657C56.6186 657 64.9953 648.838 64.9953 638.77C64.9953 628.701 56.6186 620.539 46.2855 620.539Z" fill="#E6E6E6"/>
<path d="M380.178 186.756C369.845 186.756 361.468 194.918 361.468 204.986C361.468 215.055 369.845 223.217 380.178 223.217C390.511 223.217 398.888 215.055 398.888 204.986C398.888 194.918 390.511 186.756 380.178 186.756Z" fill="#E6E6E6"/>
<path d="M264.6 532.72C258.274 532.72 253.147 537.716 253.147 543.879C253.147 550.043 258.274 555.039 264.6 555.039C270.925 555.039 276.053 550.043 276.053 543.879C276.053 537.716 270.925 532.72 264.6 532.72Z" fill="#FF6584"/>
<path d="M318.108 109.364C311.783 109.364 306.655 114.361 306.655 120.524C306.655 126.687 311.783 131.684 318.108 131.684C324.434 131.684 329.562 126.687 329.562 120.524C329.562 114.361 324.434 109.364 318.108 109.364Z" fill="#FF6584"/>
</g>
<defs>
<clipPath id="clip0_43:44">
<rect width="916" height="657" fill="white" transform="translate(401 657) rotate(-180)"/>
</clipPath>
</defs>
</svg>
