<svg width="506" height="741" viewBox="0 0 506 741" fill="none" xmlns="http://www.w3.org/2000/svg">
<g clip-path="url(#clip0_43:2)">
<path d="M620.497 310.219C588.341 366.086 527.665 378.88 477.461 359.421C461.034 352.899 445.186 343.936 430.206 332.694C421.504 326.274 413.011 319.231 404.691 311.727C402.643 309.889 400.597 308.022 398.57 306.118C397.189 304.836 395.813 303.538 394.441 302.224C377.26 285.801 360.752 267.785 344.522 249.873C304.004 205.158 262.376 159.067 212.595 137.732C202.339 133.339 189.072 131.284 182.729 143.087C177.227 153.335 180.585 167.844 185.241 178.836C202.513 219.554 233.863 245.263 265.242 265.032C296.621 284.802 329.859 300.82 357.137 329.724C384.414 358.629 405.239 404.57 399.66 450.944C394.851 490.907 370.835 523.376 342.911 537.527C314.989 551.668 283.846 549.698 254.82 540.515C225.793 531.323 198.238 515.287 170.225 501.466C153.335 493.123 131.255 487.353 120.048 506.444C110.584 522.574 116.024 548.019 127.549 561.444C139.075 574.869 154.675 579.366 169.559 583.401C215.773 595.94 261.988 608.475 308.202 621.008C322.379 624.845 336.888 628.861 349.24 639.08C361.592 649.29 371.556 667.127 371.203 686.765C370.848 706.12 360.419 723.221 347.637 731.791C334.862 740.351 320.11 741.671 305.878 740.747C252.544 737.278 99.6405 622.158 62.9673 607.441C39.4021 597.995 13.6373 584.118 3.7003 553.591C-8.67218 515.589 11.6874 469.61 39.4784 452.254C67.2625 434.889 99.4739 438.735 129.756 444.58C160.039 450.425 191.32 457.864 220.797 446.758C250.274 435.652 277.282 399.451 274.374 358.082C271.841 322.088 247.978 294.965 222.865 283.011C203.207 273.649 182.292 271.104 161.642 266.89C155.91 265.73 150.199 264.429 144.543 262.826C130.06 258.704 115.932 252.543 102.388 244.443C88.176 235.961 74.6739 225.433 62.1138 213.039C52.096 203.169 42.7341 192.125 34.1355 180.034C32.8239 178.186 31.5262 176.297 30.2424 174.368C29.0213 172.52 27.8137 170.634 26.6343 168.711C11.2849 143.794 -0.0538251 113.107 3.34661 81.4874C6.73959 49.9522 24.8301 23.6965 46.3691 11.0824C58.8178 3.7949 72.245 0.532962 85.8386 0.0615843C95.7783 -0.208306 105.715 0.76368 115.524 2.96527C160.913 12.8265 202.506 42.7873 241.788 75.2275C281.063 107.668 319.34 143.276 362.036 166.401C404.732 189.537 453.334 199.332 496.648 178.412C539.961 157.502 575.545 100.446 573.429 38.0641C602.157 71.6733 626.568 113.918 637.38 163.281C648.191 212.643 643.847 269.642 620.497 310.219Z" fill="#3F3D56"/>
<path d="M413.509 245.75C416.298 245.75 418.559 242.678 418.559 238.888C418.559 235.099 416.298 232.027 413.509 232.027C410.72 232.027 408.459 235.099 408.459 238.888C408.459 242.678 410.72 245.75 413.509 245.75Z" fill="#F9A826"/>
<path d="M79.7378 486.039C81.3311 486.039 82.6227 484.284 82.6227 482.119C82.6227 479.955 81.3311 478.2 79.7378 478.2C78.1445 478.2 76.8528 479.955 76.8528 482.119C76.8528 484.284 78.1445 486.039 79.7378 486.039Z" fill="#FF6584"/>
<path d="M162.543 256.803C162.545 260.203 162.242 263.59 161.642 266.891C155.91 265.731 150.199 264.43 144.543 262.827C130.06 258.705 115.932 252.544 102.388 244.444C104.566 234.89 109.194 226.714 115.43 221.399C121.667 216.085 129.099 213.985 136.378 215.481C143.657 216.976 150.299 221.968 155.1 229.55C159.901 237.132 162.542 246.802 162.543 256.803V256.803Z" fill="#FF6584"/>
<path d="M271.951 662.423C273.58 662.423 274.901 660.629 274.901 658.415C274.901 656.201 273.58 654.406 271.951 654.406C270.321 654.406 269 656.201 269 658.415C269 660.629 270.321 662.423 271.951 662.423Z" fill="#F0F0F0"/>
<path d="M314.28 718.046C315.909 718.046 317.23 716.251 317.23 714.037C317.23 711.823 315.909 710.029 314.28 710.029C312.65 710.029 311.329 711.823 311.329 714.037C311.329 716.251 312.65 718.046 314.28 718.046Z" fill="#F0F0F0"/>
<path d="M52.6753 559.663C54.3048 559.663 55.6258 557.868 55.6258 555.654C55.6258 553.44 54.3048 551.646 52.6753 551.646C51.0458 551.646 49.7248 553.44 49.7248 555.654C49.7248 557.868 51.0458 559.663 52.6753 559.663Z" fill="#F0F0F0"/>
<path d="M197.703 485.185C199.332 485.185 200.653 483.39 200.653 481.176C200.653 478.963 199.332 477.168 197.703 477.168C196.073 477.168 194.752 478.963 194.752 481.176C194.752 483.39 196.073 485.185 197.703 485.185Z" fill="#F0F0F0"/>
<path d="M183.13 87.3423C184.76 87.3423 186.081 85.5476 186.081 83.3338C186.081 81.1199 184.76 79.3252 183.13 79.3252C181.501 79.3252 180.18 81.1199 180.18 83.3338C180.18 85.5476 181.501 87.3423 183.13 87.3423Z" fill="#F0F0F0"/>
<path d="M361.465 401.28C363.095 401.28 364.416 399.485 364.416 397.271C364.416 395.057 363.095 393.263 361.465 393.263C359.836 393.263 358.515 395.057 358.515 397.271C358.515 399.485 359.836 401.28 361.465 401.28Z" fill="#F0F0F0"/>
<path d="M383.671 471.044C385.3 471.044 386.621 469.249 386.621 467.035C386.621 464.822 385.3 463.027 383.671 463.027C382.041 463.027 380.72 464.822 380.72 467.035C380.72 469.249 382.041 471.044 383.671 471.044Z" fill="#F0F0F0"/>
<path d="M117.717 96.1297C117.739 116.369 114.219 136.326 107.447 154.354C106.552 156.73 105.604 159.065 104.602 161.359C94.6859 184.11 79.8499 202.156 62.1139 213.041C52.096 203.17 42.7341 192.126 34.1355 180.035C32.8239 178.187 31.5263 176.299 30.2425 174.369C29.0213 172.521 27.8138 170.636 26.6343 168.713C11.2849 143.795 -0.0537908 113.109 3.34664 81.4888C6.73962 49.9536 24.8301 23.6978 46.3691 11.0837C58.8178 3.79625 72.245 0.534366 85.8386 0.0629883C96.4675 12.8157 104.847 28.656 110.355 46.4089C111.048 48.6432 111.687 50.9058 112.291 53.1967C115.892 66.9813 117.727 81.5026 117.717 96.1297V96.1297Z" fill="#F9A826"/>
<path d="M160.739 102.728C160.739 122.366 146.625 140.58 120.992 154.033C115.864 156.729 110.375 159.171 104.602 161.358C82.9935 169.541 57.2771 174.076 30.2424 174.368C29.0213 172.521 27.8137 170.635 26.6343 168.712C26.9257 168.721 27.217 168.721 27.5084 168.721C56.8678 168.721 84.7215 163.668 107.447 154.354C111.645 152.628 115.67 150.762 119.493 148.754C143.058 136.394 156.576 119.613 156.576 102.728C156.576 85.8437 143.058 69.072 119.493 56.7031C117.162 55.4775 114.761 54.3085 112.291 53.196C111.687 50.9051 111.048 48.6425 110.355 46.4082C114.046 47.9732 117.592 49.645 120.992 51.4237C146.625 64.8768 160.739 83.1003 160.739 102.728Z" fill="#E4E4E4"/>
<path d="M31.858 32.6624C33.4875 32.6624 34.8085 30.8677 34.8085 28.6538C34.8085 26.44 33.4875 24.6453 31.858 24.6453C30.2285 24.6453 28.9075 26.44 28.9075 28.6538C28.9075 30.8677 30.2285 32.6624 31.858 32.6624Z" fill="#F0F0F0"/>
<path d="M93.616 58.1167C95.2455 58.1167 96.5665 56.3221 96.5665 54.1082C96.5665 51.8943 95.2455 50.0996 93.616 50.0996C91.9865 50.0996 90.6655 51.8943 90.6655 54.1082C90.6655 56.3221 91.9865 58.1167 93.616 58.1167Z" fill="#F0F0F0"/>
<path d="M61.6961 133.628C77.5423 133.628 90.3882 116.176 90.3882 94.647C90.3882 73.1181 77.5423 55.6655 61.6961 55.6655C45.8499 55.6655 33.004 73.1181 33.004 94.647C33.004 116.176 45.8499 133.628 61.6961 133.628Z" fill="#F0F0F0"/>
<path opacity="0.3" d="M591.568 300.962C585.128 303.545 570.931 305.449 555.318 306.618C539.712 307.778 522.593 308.287 505.689 308.777C476.101 309.645 446.515 310.515 416.931 311.389C412.865 311.511 408.784 311.625 404.691 311.728C402.643 309.89 400.597 308.023 398.57 306.119C402.2 306.147 405.829 306.119 409.43 306.025C424.814 305.61 437.839 303.979 452.674 303.206C475.504 302.008 500.152 302.951 523.946 303.432C547.74 303.922 574.851 303.743 591.568 300.962Z" fill="#F0F0F0"/>
<path opacity="0.3" d="M137.452 598.147L43.1354 491.398L134.763 602.423C134.94 602.829 135.186 603.172 135.481 603.423C135.775 603.674 136.109 603.826 136.456 603.866C136.802 603.907 137.15 603.834 137.472 603.655C137.794 603.476 138.079 603.196 138.305 602.837C138.531 602.478 138.69 602.051 138.77 601.591C138.851 601.132 138.849 600.653 138.765 600.194C138.682 599.736 138.52 599.311 138.291 598.955C138.063 598.599 137.775 598.322 137.452 598.147H137.452Z" fill="#F0F0F0"/>
<path d="M65.8595 193.874C67.489 193.874 68.81 192.079 68.81 189.865C68.81 187.651 67.489 185.856 65.8595 185.856C64.23 185.856 62.9091 187.651 62.9091 189.865C62.9091 192.079 64.23 193.874 65.8595 193.874Z" fill="#F0F0F0"/>
<path d="M313.659 654.342L325.863 654.341L331.669 590.388L313.657 590.389L313.659 654.342Z" fill="#FFB6B6"/>
<path d="M310.546 648.929L313.981 648.928L327.392 641.519L334.58 648.927H334.581C338.643 648.928 342.539 651.12 345.411 655.022C348.284 658.925 349.897 664.217 349.898 669.736V670.412L310.547 670.414L310.546 648.929Z" fill="#2F2E41"/>
<path d="M222.265 654.342L210.061 654.341L204.255 590.388L222.267 590.389L222.265 654.342Z" fill="#FFB6B6"/>
<path d="M225.378 670.414L186.027 670.412V669.736C186.027 664.217 187.641 658.925 190.513 655.022C193.386 651.12 197.281 648.928 201.343 648.927H201.344L208.532 641.519L221.943 648.928L225.378 648.929L225.378 670.414Z" fill="#2F2E41"/>
<path d="M265.993 164.217L253.636 177.001L220.811 188.811C220.811 188.811 232.573 300.962 227.022 308.504C221.47 316.046 226.477 316.249 225.361 326.046C224.246 335.844 219.801 361.711 219.801 361.711H317.773C317.773 361.711 318.562 345.635 313.733 342.154C308.903 338.672 318.185 322.423 314.238 319.706C310.291 316.989 315.842 293.42 315.842 293.42L327.873 216.256L295.874 182.241L291.007 166.311L265.993 164.217Z" fill="#F9A826"/>
<path d="M281.412 264.433C283.773 264.433 285.688 261.833 285.688 258.625C285.688 255.417 283.773 252.816 281.412 252.816C279.051 252.816 277.137 255.417 277.137 258.625C277.137 261.833 279.051 264.433 281.412 264.433Z" fill="#F2F2F2"/>
<path d="M219.801 361.711L215.761 503.05C215.761 503.05 198.317 607.441 201.347 610.186C204.377 612.93 205.661 629.295 205.661 629.295L222.831 632.039C222.831 632.039 222.831 621.061 226.871 616.945C230.911 612.828 268.282 419.345 268.282 419.345L304.74 606.415C304.74 606.415 305.652 616.945 308.682 616.945C311.712 616.945 312.723 632.039 312.723 632.039H329.893V616.945C329.893 616.945 337.608 613.622 334.578 602.644C331.548 591.666 317.773 361.711 317.773 361.711H219.801Z" fill="#2F2E41"/>
<path d="M278.825 155.794C290.26 155.794 299.531 143.199 299.531 127.663C299.531 112.127 290.26 99.5327 278.825 99.5327C267.39 99.5327 258.12 112.127 258.12 127.663C258.12 143.199 267.39 155.794 278.825 155.794Z" fill="#FFB6B6"/>
<path opacity="0.1" d="M314.237 253.991L318.277 258.108L320.297 238.897L314.237 253.991Z" fill="black"/>
<path d="M222.747 188.702C222.747 188.702 217.697 187.33 214.667 199.68C211.637 212.03 200.527 258.685 200.527 266.919C200.527 275.152 269.717 311.48 269.717 311.48L262.518 277.167L230.827 254.569L222.747 188.702Z" fill="#F9A826"/>
<path d="M272.926 306.393C279.441 306.393 284.723 299.217 284.723 290.366C284.723 281.514 279.441 274.339 272.926 274.339C266.411 274.339 261.13 281.514 261.13 290.366C261.13 299.217 266.411 306.393 272.926 306.393Z" fill="#FFB6B6"/>
<path opacity="0.1" d="M229.904 237.572L230.827 254.569L260.132 275.466L234.067 251.713L229.904 237.572Z" fill="black"/>
<path d="M300.352 239.995H299.971V225.845C299.971 224.77 299.816 223.705 299.513 222.712C299.21 221.718 298.766 220.815 298.206 220.055C297.646 219.294 296.982 218.691 296.251 218.28C295.519 217.868 294.736 217.656 293.944 217.656H271.88C271.088 217.656 270.304 217.868 269.573 218.28C268.842 218.691 268.177 219.294 267.617 220.055C267.058 220.815 266.614 221.718 266.311 222.712C266.008 223.705 265.852 224.77 265.852 225.845V303.469C265.852 304.544 266.008 305.609 266.311 306.603C266.614 307.596 267.058 308.499 267.617 309.259C268.177 310.02 268.842 310.623 269.573 311.034C270.304 311.446 271.088 311.658 271.88 311.658H293.944C294.735 311.658 295.519 311.446 296.251 311.034C296.982 310.623 297.646 310.02 298.206 309.259C298.766 308.499 299.21 307.596 299.513 306.603C299.816 305.609 299.971 304.544 299.971 303.469V250.066H300.352V239.995Z" fill="#F0F0F0"/>
<path d="M327.873 216.255C327.873 216.255 330.903 219 332.923 231.35C334.943 243.7 348.073 290.355 343.023 301.333C337.973 312.311 336.482 324.028 319.312 307.561L295.552 278.005L312.722 256.05L319.793 262.911L327.873 216.255Z" fill="#F9A826"/>
<path d="M283.181 252.253C285.97 252.253 288.231 249.182 288.231 245.392C288.231 241.603 285.97 238.531 283.181 238.531C280.392 238.531 278.131 241.603 278.131 245.392C278.131 249.182 280.392 252.253 283.181 252.253Z" fill="#F9A826"/>
<path d="M297.801 276.45C304.316 276.45 309.597 269.275 309.597 260.423C309.597 251.572 304.316 244.396 297.801 244.396C291.285 244.396 286.004 251.572 286.004 260.423C286.004 269.275 291.285 276.45 297.801 276.45Z" fill="#FFB6B6"/>
<path opacity="0.1" d="M229.347 288.87L263.211 309.221L228.406 299.979L229.347 288.87Z" fill="black"/>
<path d="M257.936 133.269L255.093 118.57C254.351 114.735 253.603 110.822 253.77 106.863C253.937 102.904 255.173 98.818 257.628 96.6732C260.083 94.5284 263.831 95.035 265.41 98.3695C265.711 93.0451 269.276 88.9496 273.058 87.4987C276.841 86.0478 280.857 86.6216 284.784 86.8664C288.71 87.1112 292.854 86.9403 296.243 84.2349C296.501 85.2875 296.484 86.429 296.195 87.4667C295.906 88.5043 295.361 89.3745 294.655 89.9303C295.497 90.2426 296.395 90.1085 297.168 89.555C297.94 89.0016 298.529 88.0702 298.815 86.9493C298.841 90.0329 298.002 93.0143 296.469 95.2883C297.931 94.3027 299.611 94.0914 301.182 94.6956C302.752 95.2999 304.101 96.6764 304.966 98.5574C306.696 102.631 305.727 107.746 304.715 112.243L299.522 135.324C298.734 131.816 298.586 128.111 298.164 124.488C297.743 120.865 296.994 117.165 295.233 114.384C293.473 111.602 290.482 109.992 287.981 111.373C286.578 112.147 285.507 113.719 284.24 114.847C281.641 117.162 278.334 117.494 275.245 117.023C272.156 116.552 269.146 115.357 266.058 114.88C264.124 114.581 261.966 114.66 260.507 116.41C259.504 117.826 258.841 119.624 258.607 121.564C257.919 125.431 257.648 129.414 257.804 133.387" fill="#2F2E41"/>
</g>
<defs>
<clipPath id="clip0_43:2">
<rect width="643" height="741" fill="white"/>
</clipPath>
</defs>
</svg>
